<mxfile host="www.draw.io" modified="2019-12-08T06:09:41.883Z" agent="Mozilla/5.0 (Windows NT 10.0; Win64; x64; rv:71.0) Gecko/20100101 Firefox/71.0" etag="34jLJ1TrmpqlA4kNflsA" version="12.3.8" type="github" pages="1">
  <diagram id="vmkbKAbH_n-bo9jZ-tSG" name="Page-1">
    <mxGraphModel dx="966" dy="739" grid="1" gridSize="10" guides="1" tooltips="1" connect="1" arrows="1" fold="1" page="1" pageScale="1" pageWidth="850" pageHeight="1100" math="0" shadow="0">
      <root>
        <mxCell id="0"/>
        <mxCell id="1" parent="0"/>
        <mxCell id="bXO1tNxaPpxsEI2wE8LU-11" value="" style="rounded=1;whiteSpace=wrap;html=1;fontSize=18;" vertex="1" parent="1">
          <mxGeometry x="80" y="270" width="480" height="150" as="geometry"/>
        </mxCell>
        <mxCell id="bXO1tNxaPpxsEI2wE8LU-7" style="edgeStyle=orthogonalEdgeStyle;rounded=0;orthogonalLoop=1;jettySize=auto;html=1;exitX=0.5;exitY=1;exitDx=0;exitDy=0;entryX=0.5;entryY=0;entryDx=0;entryDy=0;fontSize=18;" edge="1" parent="1" source="bXO1tNxaPpxsEI2wE8LU-1" target="bXO1tNxaPpxsEI2wE8LU-3">
          <mxGeometry relative="1" as="geometry"/>
        </mxCell>
        <mxCell id="bXO1tNxaPpxsEI2wE8LU-8" style="edgeStyle=orthogonalEdgeStyle;rounded=0;orthogonalLoop=1;jettySize=auto;html=1;exitX=0.5;exitY=1;exitDx=0;exitDy=0;entryX=0.5;entryY=0;entryDx=0;entryDy=0;fontSize=18;" edge="1" parent="1" source="bXO1tNxaPpxsEI2wE8LU-1" target="bXO1tNxaPpxsEI2wE8LU-4">
          <mxGeometry relative="1" as="geometry"/>
        </mxCell>
        <mxCell id="bXO1tNxaPpxsEI2wE8LU-9" style="edgeStyle=orthogonalEdgeStyle;rounded=0;orthogonalLoop=1;jettySize=auto;html=1;exitX=0.5;exitY=1;exitDx=0;exitDy=0;entryX=0.5;entryY=0;entryDx=0;entryDy=0;fontSize=18;" edge="1" parent="1" source="bXO1tNxaPpxsEI2wE8LU-1" target="bXO1tNxaPpxsEI2wE8LU-5">
          <mxGeometry relative="1" as="geometry"/>
        </mxCell>
        <mxCell id="bXO1tNxaPpxsEI2wE8LU-1" value="&lt;font style=&quot;font-size: 18px&quot;&gt;Get OS&lt;br style=&quot;font-size: 18px;&quot;&gt;&lt;/font&gt;" style="rhombus;whiteSpace=wrap;html=1;fontSize=18;fontStyle=1" vertex="1" parent="1">
          <mxGeometry x="280" y="60" width="80" height="80" as="geometry"/>
        </mxCell>
        <mxCell id="bXO1tNxaPpxsEI2wE8LU-3" value="&lt;font style=&quot;font-size: 18px&quot;&gt;Win&lt;/font&gt;" style="rounded=1;whiteSpace=wrap;html=1;fontSize=18;fontStyle=1" vertex="1" parent="1">
          <mxGeometry x="180" y="200" width="60" height="30" as="geometry"/>
        </mxCell>
        <mxCell id="bXO1tNxaPpxsEI2wE8LU-4" value="&lt;font style=&quot;font-size: 18px;&quot;&gt;OSX&lt;/font&gt;" style="rounded=1;whiteSpace=wrap;html=1;fontSize=18;fontStyle=1" vertex="1" parent="1">
          <mxGeometry x="290" y="200" width="60" height="30" as="geometry"/>
        </mxCell>
        <mxCell id="bXO1tNxaPpxsEI2wE8LU-5" value="&lt;font style=&quot;font-size: 18px;&quot;&gt;OSX&lt;/font&gt;" style="rounded=1;whiteSpace=wrap;html=1;fontSize=18;fontStyle=1" vertex="1" parent="1">
          <mxGeometry x="400" y="200" width="60" height="30" as="geometry"/>
        </mxCell>
        <mxCell id="bXO1tNxaPpxsEI2wE8LU-12" value="&lt;font style=&quot;font-size: 14px&quot;&gt;[repo_url]&lt;/font&gt;&lt;font style=&quot;font-size: 14px&quot;&gt;/deploy/scripts&lt;/font&gt;" style="rounded=0;whiteSpace=wrap;html=1;fontSize=18;verticalAlign=top;align=left;" vertex="1" parent="1">
          <mxGeometry x="110" y="300" width="160" height="40" as="geometry"/>
        </mxCell>
      </root>
    </mxGraphModel>
  </diagram>
</mxfile>
